:SAMPLES-PER-SECOND 30
:FULLY-SPECIFIED
:DEGREES
683
root  22.6424 37.4392 -1.91754 30.8767 -85.6949 -42.1468
RightUpLeg  -11.2448 -5.41385 -0.747674
RightLeg  31.4125 -0.292884 -0.44686
RightFoot  -7.57435 -0.0117792 -1.19412
RightToes  2.32829e-010 0 -3.6325e-017
Spine  11.2673 -5.28481 6.7604
Spine1  13.1284 -5.33449 5.08144
HEad  -19.8058 5.94815 -7.5171
LeftShoulder1  0.957929 0.642412 -27.3465
LeftArm  -5.69525 2.87856 -42.8397
LeftForeArm  32.3797 -75.6141 -48.2502
LeftHand  0.00942393 3.55428 -1.8185
RightShoulder  -0.262735 -4.35357 23.6542
RightArm  -13.0622 -16.4912 29.4782
RightForeArm  89.9397 75.9538 124.912
RightHand  -0.142838 -1.05399 -3.65187
LeftUpLeg  -2.25752 4.04017 7.34325
LeftLeg  61.5258 -2.34035 -4.15241
LeftFoot  10.9137 1.15264 -6.25266
LeftToes  -3.54706e-010 1.16038e-010 5.28031e-012
684
root  21.487 37.68 -2.2235 20.795 -85.0016 -32.2418
RightUpLeg  -8.57255 -5.76371 -0.948489
RightLeg  30.9385 -0.76625 -0.751581
RightFoot  -9.32514 -0.0427706 -1.15685
RightToes  2.32829e-010 0 -3.6325e-017
Spine  11.1096 -4.81745 6.97065
Spine1  13.13 -4.54593 4.43712
HEad  -20.5431 5.533 -7.36005
LeftShoulder1  0.91274 0.795921 -27.576
LeftArm  -6.28185 2.74209 -42.3735
LeftForeArm  33.5247 -75.9035 -49.743
LeftHand  0.0111001 3.39701 -1.2663
RightShoulder  -0.241696 -4.28854 23.4596
RightArm  -13.61 -15.8988 30.3724
RightForeArm  93.3582 75.7469 126.572
RightHand  -0.0799504 -1.74042 -2.30289
LeftUpLeg  -6.6579 5.39415 6.57747
LeftLeg  65.7709 -0.504836 -0.648791
LeftFoot  10.2957 0.675428 -3.78276
LeftToes  -3.54706e-010 1.16038e-010 5.28031e-012
685
root  20.2989 38.0607 -2.46687 4.56659 -84.4346 -15.6809
RightUpLeg  -5.66309 -6.83216 -2.125
RightLeg  28.9838 -0.83815 -0.75415
RightFoot  -10.4645 -0.0622016 -1.13809
RightToes  2.32829e-010 0 -3.6325e-017
Spine  10.5445 -4.3623 6.37653
Spine1  12.6233 -3.92079 3.34322
HEad  -20.2693 4.0169 -7.04569
LeftShoulder1  0.928038 0.729575 -27.3147
LeftArm  -7.26541 3.34563 -42.0987
LeftForeArm  35.4225 -76.327 -52.077
LeftHand  0.0101571 3.57517 -1.65836
RightShoulder  -0.239187 -4.27913 23.4999
RightArm  -13.609 -15.1845 31.2084
RightForeArm  94.0059 75.5744 127.46
RightHand  -0.0941789 -1.6183 -2.66482
LeftUpLeg  -10.7516 6.10851 4.25523
LeftLeg  66.2254 -0.967355 -1.71101
LeftFoot  6.55931 0.311364 -2.31033
LeftToes  -3.54706e-010 1.16038e-010 5.28031e-012
686
root  19.1028 38.3612 -2.62454 -2.11627 -83.5877 -8.37244
RightUpLeg  -3.07254 -8.43634 -2.88924
RightLeg  26.9874 -0.291318 -0.418486
RightFoot  -11.4037 -0.0775836 -1.10402
RightToes  2.32829e-010 0 -3.6325e-017
Spine  9.42731 -3.9837 6.48808
Spine1  12.4745 -3.40626 2.76193
HEad  -20.0194 3.02326 -6.91042
LeftShoulder1  0.911932 0.78099 -27.356
LeftArm  -8.26233 3.67197 -41.9026
LeftForeArm  36.7065 -76.5707 -53.5273
LeftHand  0.010616 3.35838 -1.26
RightShoulder  -0.268878 -4.38221 23.3712
RightArm  -13.5192 -14.2953 31.9067
RightForeArm  94.609 75.5232 127.795
RightHand  -0.0828723 -1.72277 -2.36744
LeftUpLeg  -14.427 6.03879 2.28119
LeftLeg  63.8727 -1.85432 -3.44942
LeftFoot  4.31613 0.533518 -4.03128
LeftToes  -3.54706e-010 1.16038e-010 5.28031e-012
687
root  17.9043 38.6379 -2.78829 -5.97174 -83.3772 -3.87183
RightUpLeg  -0.2522 -9.43495 -3.43552
RightLeg  24.2976 0.496879 -0.0364991
RightFoot  -12.1429 -0.0891065 -0.97659
RightToes  2.32829e-010 0 -3.6325e-017
Spine  8.58186 -3.39208 6.45722
Spine1  11.8777 -2.68959 1.8855
HEad  -19.71 1.98586 -6.55776
LeftShoulder1  0.902514 0.769395 -26.8524
LeftArm  -9.21621 4.27224 -41.4818
LeftForeArm  38.8725 -76.9523 -56.0933
LeftHand  0.0118595 3.2425 -1.80532
RightShoulder  -0.257579 -4.34321 23.4082
RightArm  -13.2788 -13.6943 32.7611
RightForeArm  95.7801 75.3038 128.934
RightHand  -0.0799752 -1.96771 -2.39257
LeftUpLeg  -17.1841 6.28883 0.809728
LeftLeg  58.9779 -3.22611 -5.26992
LeftFoot  2.18299 0.357703 -3.13273
LeftToes  -3.54706e-010 1.16038e-010 5.28031e-012
